<svg xmlns="http://www.w3.org/2000/svg" viewBox="0 0 302.53 264.16"><defs><style>.cls-1{fill:#7ec9aa;}.cls-2{fill:#1caada;}</style></defs><title>Asset 1</title><g id="Layer_2" data-name="Layer 2"><g id="Layer_1-2" data-name="Layer 1"><path class="cls-1" d="M302.5,77.67c-.81-30-18.81-58.19-43.56-70.42s-55-8.61-77.58,7.93c-12.83,9.39-23.11,16.49-30.09,31.67-7-15.18-17.27-22.28-30.11-31.67C98.56-1.36,68.32-5,43.58,7.25S.84,47.69,0,77.67c-.61,22.55,7.74,43.82,18.86,63.09a14,14,0,0,0,12.11,7h7.72c-4-10.27-6.47-21.08-6.17-32.28.64-23.9,14.84-46.38,34.35-56.13s43.36-6.86,61.18,6.32c10.13,7.48,18.24,18.06,23.75,30.17,5.5-12.11,13.61-22.69,23.73-30.17,17.83-13.18,41.68-16.06,61.19-6.32s33.71,32.23,34.35,56.13c.43,16.34-5,31.83-12.54,46.06-1.34,2.5-3.39,5.75-5.81,9.35a238.45,238.45,0,0,1-47.7,52l-50.71,41.19.06,0,64.36-51.73a301,301,0,0,0,60.48-65.25c3.07-4.52,5.67-8.59,7.36-11.73C296.2,117.61,303.05,98.16,302.5,77.67Z"/><path class="cls-2" d="M252.75,170.92c2.42-3.6,4.47-6.85,5.81-9.35,7.57-14.23,13-29.72,12.54-46.06-.64-23.9-14.84-46.38-34.35-56.13s-43.36-6.86-61.19,6.32c-10.12,7.48-18.23,18.06-23.73,30.17-5.51-12.11-13.62-22.69-23.75-30.17C110.26,52.52,86.41,49.64,66.9,59.38S33.19,91.61,32.55,115.51c-.3,11.2,2.16,22,6.17,32.28h10A11.3,11.3,0,0,0,60,136.49V94.71a12,12,0,0,1,12-12h39.26a12,12,0,0,1,12,12v40.9a12.18,12.18,0,0,0,12.19,12.18h37.73a12.91,12.91,0,0,1,12.9,12.9v45.72a12.91,12.91,0,0,1-12.9,12.9H135.51a12.18,12.18,0,0,0-12.19,12.18v4.75a16,16,0,0,0,7,13.28q8.47,5.68,17.37,10.89,3.28,1.89,6.61,3.71l50.71-41.19A238.45,238.45,0,0,0,252.75,170.92Z"/></g></g></svg>